{
  "asset": {
    "version": "2.0",
    "generator": "Sketchup glTF Exporter"
  },
  "scene": 0,
  "scenes": [
    {
      "nodes": [
        0
      ]
    }
  ],
  "nodes": [
    {
      "name": "root",
      "mesh": 0
    }
  ],
  "materials": [
    {
      "pbrMetallicRoughness": {
        "baseColorFactor": [
          0.4,
          0.8,
          1.0,
          0.5
        ],
        "metallicFactor": 0.0
      },
      "name": "HcalRecHit",
      "doubleSided": true,
      "alphaMode": "BLEND"
    },
    {
      "pbrMetallicRoughness": {
        "baseColorFactor": [
          0.098,
          1.0,
          0.098,
          0.5
        ],
        "metallicFactor": 0.0
      },
      "name": "EcalRecHit",
      "doubleSided": true,
      "alphaMode": "BLEND"
    },
    {
      "pbrMetallicRoughness": {
        "baseColorFactor": [
          0.5,
          0.5,
          0.5,
          1.0
        ]
      },
      "name": "default material",
      "doubleSided": true
    },
    {
      "pbrMetallicRoughness": {
        "baseColorFactor": [
          1.0,
          1.0,
          0.0,
          1.0
        ],
        "metallicFactor": 0.0
      },
      "name": "Material1"
    }
  ],
  "meshes": [
    {
      "primitives": [
        {
          "attributes": {
            "POSITION": 0,
            "NORMAL": 1
          },
          "indices": 2,
          "mode": 4,
          "material": 0
        },
        {
          "attributes": {
            "POSITION": 0,
            "NORMAL": 1
          },
          "indices": 3,
          "mode": 4,
          "material": 1
        },
        {
          "attributes": {
            "POSITION": 0,
            "NORMAL": 1
          },
          "indices": 4,
          "mode": 4,
          "material": 2
        },
        {
          "attributes": {
            "POSITION": 0,
            "NORMAL": 1
          },
          "indices": 5,
          "mode": 4,
          "material": 3
        }
      ]
    }
  ],
  "accessors": [
    {
      "bufferView": 0,
      "componentType": 5126,
      "count": 28205,
      "type": "VEC3",
      "min": [
        -3.51,
        -2.58,
        -2.82
      ],
      "max": [
        4.24,
        1.81,
        2.61
      ]
    },
    {
      "bufferView": 1,
      "componentType": 5126,
      "count": 28205,
      "type": "VEC3",
      "min": [
        -1.01,
        -1.01,
        -1.01
      ],
      "max": [
        1.01,
        1.01,
        1.01
      ]
    },
    {
      "bufferView": 2,
      "componentType": 5123,
      "count": 732,
      "type": "SCALAR"
    },
    {
      "bufferView": 2,
      "componentType": 5123,
      "count": 7848,
      "type": "SCALAR",
      "byteOffset": 1464
    },
    {
      "bufferView": 2,
      "componentType": 5123,
      "count": 9210,
      "type": "SCALAR",
      "byteOffset": 17160
    },
    {
      "bufferView": 2,
      "componentType": 5123,
      "count": 110253,
      "type": "SCALAR",
      "byteOffset": 35580
    }
  ],
  "bufferViews": [
    {
      "buffer": 0,
      "byteLength": 338460,
      "target": 34962,
      "byteStride": 12
    },
    {
      "buffer": 0,
      "byteOffset": 338460,
      "byteLength": 338460,
      "target": 34962,
      "byteStride": 12
    },
    {
      "buffer": 0,
      "byteOffset": 676920,
      "byteLength": 256086,
      "target": 34963
    }
  ],
  "buffers": [
    {
      "uri": "data:application/octet-stream;base64,",
      "byteLength": 933006
    }
  ]
}